Coordinates
version=1
nRows=11
nColumns=36
inDegrees=yes

Units are S.I. units (second, meters, Newtons, ...)
If the header above contains a line with 'inDegrees', this indicates whether rotational values are in degrees (yes) or radians (no).

endheader
time	pelvis_tilt	pelvis_list	pelvis_rotation	pelvis_tx	pelvis_ty	pelvis_tz	hip_flexion_r	hip_adduction_r	hip_rotation_r	knee_angle_r	knee_angle_r_beta	ankle_angle_r	subtalar_angle_r	mtp_angle_r	hip_flexion_l	hip_adduction_l	hip_rotation_l	knee_angle_l	knee_angle_l_beta	ankle_angle_l	subtalar_angle_l	mtp_angle_l	lumbar_extension	lumbar_bending	lumbar_rotation	arm_flex_r	arm_add_r	arm_rot_r	elbow_flex_r	pro_sup_r	arm_flex_l	arm_add_l	arm_rot_l	elbow_flex_l	pro_sup_l
      2.10000000	      4.06746819	     -0.68077830	     -2.09856084	      0.38257147	      0.89956942	     -0.09704567	     -4.87511633	     -1.58201251	      2.71763052	      2.28482196	      0.03987767	      6.37115329	    -16.30372954	     -7.49999987	     -4.56184312	     -2.56236192	      6.39721909	      1.50389904	      0.02624799	      4.77788372	    -12.60667374	     -7.49999987	    -11.99971395	     -0.91573452	     -0.43568679	     10.81118895	    -10.99873047	     51.52583550	     26.82781163	     62.99087722	      8.16634834	    -11.94520076	     43.93073922	     28.02681708	     56.52204358
      2.11666670	      3.95904618	     -0.73650353	     -2.19315193	      0.38033073	      0.89457117	     -0.09464275	     -4.63234322	     -1.43943389	      2.86806976	      2.46376223	      0.04300076	      6.52574820	    -16.79746791	     -7.49999987	     -4.38595105	     -2.69937700	      6.28690205	      1.59932578	      0.02791350	      5.14466472	    -12.43010678	     -7.49999987	    -12.03636310	     -0.94415548	     -0.26098402	     10.73747158	    -11.04420394	     51.05368184	     27.08684171	     63.16371268	      8.18998393	    -12.06963691	     43.37976898	     28.29522412	     56.42245929
      2.13333330	      3.79325587	     -0.76476438	     -2.30783379	      0.38156942	      0.89576098	     -0.09661986	     -4.33276513	     -1.36483232	      2.89294985	      2.65500426	      0.04633857	      6.59925165	    -17.08555335	     -7.49999987	     -4.17302551	     -2.79706497	      6.22423863	      1.66942189	      0.02913691	      5.51404621	    -11.94643732	     -7.49999987	    -11.96719772	     -1.00335562	     -0.11856980	     10.60381050	    -10.93265957	     50.12952211	     27.17707778	     62.88577494	      8.05572030	    -12.00240185	     42.27055848	     28.30899241	     56.69014227
      2.15000000	      3.45264036	     -0.72236344	     -2.28159297	      0.38056554	      0.90378313	     -0.09947862	     -3.91323312	     -1.41355126	      3.04362857	      2.70498798	      0.04721095	      6.31982006	    -17.48221654	     -7.49999987	     -3.77848801	     -2.78143886	      6.28411692	      1.62719746	      0.02839995	      5.18866940	    -12.27249966	     -7.49999987	    -11.71496981	     -1.00108917	     -0.16189746	     10.36540704	    -10.92375556	     49.53882379	     27.04120321	     62.62777669	      7.98780664	    -11.89084699	     41.51260494	     28.27835110	     56.95419598
      2.16666670	      3.32242405	     -0.68783786	     -2.28107122	      0.37932590	      0.90931119	     -0.09918586	     -3.73822423	     -1.47050073	      3.03066234	      2.64219191	      0.04611495	      6.28561999	    -17.43502229	     -7.49999987	     -3.61992991	     -2.74604576	      6.30688875	      1.56845321	      0.02737467	      5.13763311	    -12.25627150	     -7.49999987	    -11.87059318	     -1.01312706	     -0.20310248	     10.36649735	    -10.92684516	     49.54471807	     27.04362792	     62.64185756	      8.05083263	    -11.89896757	     41.50936715	     28.28689143	     56.95224887
      2.18333330	      2.95062725	     -0.62235034	     -2.18332210	      0.37897289	      0.90392331	     -0.09953494	     -3.32017650	     -1.53905907	      3.13048136	      2.53818345	      0.04429966	      5.84632436	    -17.56001840	     -7.49999987	     -3.19204386	     -2.66916002	      6.57065263	      1.47753850	      0.02578791	      4.46392802	    -12.64082896	     -7.49999987	    -11.65050834	     -1.11311454	     -0.35564605	     10.23081262	    -10.86467182	     48.96015654	     27.02556226	     63.36281657	      8.02895514	    -11.88358797	     40.91929914	     28.27723755	     57.20722822
      2.20000000	      2.59213121	     -0.56337109	     -2.02886342	      0.37803512	      0.90510997	     -0.09976585	     -2.89413684	     -1.60113902	      2.92921783	      2.48214538	      0.04332161	      5.85384671	    -17.25862685	     -7.49999987	     -2.72060559	     -2.60586945	      6.77593839	      1.42283401	      0.02483314	      4.03918210	    -12.81396355	     -7.49999987	    -11.49987461	     -1.15453331	     -0.46970614	     10.18756814	    -10.71722700	     48.35316200	     26.63721732	     64.99502297	      8.18242706	    -11.75934033	     40.79660185	     27.90539118	     57.59740964
      2.21666670	      2.23893385	     -0.55292813	     -1.94822817	      0.37697820	      0.90001629	     -0.10027422	     -2.41527909	     -1.62036987	      3.10468629	      2.49635854	      0.04356968	      5.59016074	    -17.83822892	     -7.49999987	     -2.23116402	     -2.57878965	      7.04833094	      1.43680062	      0.02507690	      3.67586036	    -13.34946566	     -7.49999987	    -11.40252701	     -1.17198223	     -0.56516805	     10.02888472	    -10.64573831	     47.14194488	     26.57765545	     64.68280932	      8.11116641	    -11.64038356	     39.63675616	     27.92444828	     57.72414042
      2.23333330	      2.08749486	     -0.51971679	     -1.88054287	      0.37357245	      0.90000726	     -0.10576652	     -2.15036016	     -1.76990360	      3.13618780	      2.42563843	      0.04233538	      5.54116663	    -17.79008796	     -7.49999987	     -1.96227048	     -2.47058684	      7.02357808	      1.33415911	      0.02328547	      3.62261574	    -13.25361640	     -7.49999987	    -11.72841990	     -1.04455039	     -0.63499894	     10.19312287	    -10.82417378	     47.12149433	     26.54766990	     64.69742581	      8.33036623	    -11.53922665	     39.63988578	     27.99892690	     57.73175245
      2.25000000	      1.88416546	     -0.51339626	     -1.81602624	      0.37338594	      0.89891111	     -0.10110010	     -1.75047087	     -1.78748060	      2.98276266	      2.51285677	      0.04385762	      5.39981830	    -17.82080928	     -7.49999987	     -1.55803191	     -2.45117799	      7.09535199	      1.40779845	      0.02457072	      3.47456888	    -13.01380132	     -7.49999987	    -12.07837311	     -1.09310951	     -0.62370303	     10.49037105	    -10.94635767	     47.08267034	     26.58393328	     64.74518913	      8.70925026	    -11.59333679	     39.58593530	     28.08128823	     57.74660061
      2.26666670	      1.32702310	     -0.46810848	     -1.75607766	      0.37154674	      0.89701115	     -0.10292004	     -0.91084323	     -1.85792650	      2.92443353	      2.77055162	      0.04835525	      5.16477930	    -18.29091306	     -7.49999987	     -0.71177645	     -2.38265515	      6.99271673	      1.58039800	      0.02758315	      3.60799328	    -12.75843562	     -7.49999987	    -11.97249368	     -1.10925447	     -0.59589610	     10.43464336	    -11.08634768	     46.44273119	     26.72425805	     64.92966796	      8.77508266	    -11.55688534	     38.80919217	     28.25785969	     58.26325341
